<mxfile host="app.diagrams.net" modified="2023-05-05T14:30:45.053Z" agent="Mozilla/5.0 (Windows NT 10.0; Win64; x64) AppleWebKit/537.36 (KHTML, like Gecko) Chrome/112.0.0.0 Safari/537.36" etag="LwB2r51C0N2kjvXU55SV" version="21.2.9" type="device">
  <diagram id="rx_o2-TzArGv7GZZlof3" name="Page-1">
    <mxGraphModel dx="985" dy="1586" grid="1" gridSize="10" guides="1" tooltips="1" connect="1" arrows="1" fold="1" page="1" pageScale="1" pageWidth="827" pageHeight="1169" math="0" shadow="0">
      <root>
        <mxCell id="0" />
        <mxCell id="1" parent="0" />
        <mxCell id="4ngtMrXkkLxwLe9Ttvsz-4" value="" style="rhombus;whiteSpace=wrap;html=1;" parent="1" vertex="1">
          <mxGeometry x="610" y="90" width="80" height="70" as="geometry" />
        </mxCell>
        <mxCell id="4ngtMrXkkLxwLe9Ttvsz-1" value="" style="rounded=0;whiteSpace=wrap;html=1;" parent="1" vertex="1">
          <mxGeometry x="590" width="120" height="60" as="geometry" />
        </mxCell>
        <mxCell id="ru7PqEgB39XRiWJJ0tET-6" value="" style="rhombus;whiteSpace=wrap;html=1;" parent="1" vertex="1">
          <mxGeometry x="374.5" y="190" width="97" height="100" as="geometry" />
        </mxCell>
        <mxCell id="ru7PqEgB39XRiWJJ0tET-2" value="" style="rounded=0;whiteSpace=wrap;html=1;" parent="1" vertex="1">
          <mxGeometry x="150" y="210" width="120" height="60" as="geometry" />
        </mxCell>
        <mxCell id="sh4LW6aI4arqNzveAwOA-1" value="Jogador" style="rounded=0;whiteSpace=wrap;html=1;" parent="1" vertex="1">
          <mxGeometry x="140" y="540" width="149" height="60" as="geometry" />
        </mxCell>
        <mxCell id="sh4LW6aI4arqNzveAwOA-2" value="Jogo" style="rounded=0;whiteSpace=wrap;html=1;" parent="1" vertex="1">
          <mxGeometry x="590" y="210" width="120" height="60" as="geometry" />
        </mxCell>
        <mxCell id="sh4LW6aI4arqNzveAwOA-3" value="Partida" style="rounded=0;whiteSpace=wrap;html=1;" parent="1" vertex="1">
          <mxGeometry x="160" y="220" width="100" height="40" as="geometry" />
        </mxCell>
        <mxCell id="sh4LW6aI4arqNzveAwOA-4" value="id" style="ellipse;whiteSpace=wrap;html=1;" parent="1" vertex="1">
          <mxGeometry x="294" y="480" width="50" height="30" as="geometry" />
        </mxCell>
        <mxCell id="sh4LW6aI4arqNzveAwOA-5" value="" style="endArrow=none;html=1;rounded=0;" parent="1" source="sh4LW6aI4arqNzveAwOA-4" edge="1">
          <mxGeometry width="50" height="50" relative="1" as="geometry">
            <mxPoint x="170" y="470" as="sourcePoint" />
            <mxPoint x="280" y="540" as="targetPoint" />
          </mxGeometry>
        </mxCell>
        <mxCell id="sh4LW6aI4arqNzveAwOA-6" value="&lt;u&gt;email&lt;/u&gt;" style="ellipse;whiteSpace=wrap;html=1;" parent="1" vertex="1">
          <mxGeometry x="190" y="490" width="50" height="25" as="geometry" />
        </mxCell>
        <mxCell id="sh4LW6aI4arqNzveAwOA-7" value="" style="endArrow=none;html=1;rounded=0;" parent="1" source="sh4LW6aI4arqNzveAwOA-6" target="sh4LW6aI4arqNzveAwOA-1" edge="1">
          <mxGeometry width="50" height="50" relative="1" as="geometry">
            <mxPoint x="114.52172023607591" y="595.6295742866835" as="sourcePoint" />
            <mxPoint x="170" y="568.8888888888889" as="targetPoint" />
          </mxGeometry>
        </mxCell>
        <mxCell id="sh4LW6aI4arqNzveAwOA-8" value="&lt;u&gt;username&lt;/u&gt;" style="ellipse;whiteSpace=wrap;html=1;" parent="1" vertex="1">
          <mxGeometry x="115" y="625" width="70" height="30" as="geometry" />
        </mxCell>
        <mxCell id="sh4LW6aI4arqNzveAwOA-9" value="" style="endArrow=none;html=1;rounded=0;" parent="1" source="sh4LW6aI4arqNzveAwOA-8" target="sh4LW6aI4arqNzveAwOA-1" edge="1">
          <mxGeometry width="50" height="50" relative="1" as="geometry">
            <mxPoint x="57.72399890175154" y="567.5431251716013" as="sourcePoint" />
            <mxPoint x="170" y="549.5454545454545" as="targetPoint" />
          </mxGeometry>
        </mxCell>
        <mxCell id="sh4LW6aI4arqNzveAwOA-10" value="Estado" style="ellipse;whiteSpace=wrap;html=1;" parent="1" vertex="1">
          <mxGeometry x="325.5" y="510" width="81" height="40" as="geometry" />
        </mxCell>
        <mxCell id="sh4LW6aI4arqNzveAwOA-11" value="" style="endArrow=none;html=1;rounded=0;" parent="1" source="sh4LW6aI4arqNzveAwOA-10" target="sh4LW6aI4arqNzveAwOA-1" edge="1">
          <mxGeometry width="50" height="50" relative="1" as="geometry">
            <mxPoint x="59.96488078545906" y="535.9368415147273" as="sourcePoint" />
            <mxPoint x="170" y="538.6363636363636" as="targetPoint" />
          </mxGeometry>
        </mxCell>
        <mxCell id="sh4LW6aI4arqNzveAwOA-14" value="RegiÃ£o" style="rounded=0;whiteSpace=wrap;html=1;" parent="1" vertex="1">
          <mxGeometry x="27.5" y="470" width="85" height="30" as="geometry" />
        </mxCell>
        <mxCell id="sh4LW6aI4arqNzveAwOA-15" value="nome" style="ellipse;whiteSpace=wrap;html=1;" parent="1" vertex="1">
          <mxGeometry x="10" y="432.5" width="50" height="20" as="geometry" />
        </mxCell>
        <mxCell id="sh4LW6aI4arqNzveAwOA-16" value="" style="endArrow=none;html=1;rounded=0;" parent="1" source="sh4LW6aI4arqNzveAwOA-15" target="sh4LW6aI4arqNzveAwOA-14" edge="1">
          <mxGeometry width="50" height="50" relative="1" as="geometry">
            <mxPoint x="190" y="390" as="sourcePoint" />
            <mxPoint x="240" y="230" as="targetPoint" />
          </mxGeometry>
        </mxCell>
        <mxCell id="sh4LW6aI4arqNzveAwOA-17" value="" style="endArrow=none;html=1;rounded=0;" parent="1" source="sh4LW6aI4arqNzveAwOA-18" target="sh4LW6aI4arqNzveAwOA-2" edge="1">
          <mxGeometry width="50" height="50" relative="1" as="geometry">
            <mxPoint x="460" y="150" as="sourcePoint" />
            <mxPoint x="340" y="300" as="targetPoint" />
          </mxGeometry>
        </mxCell>
        <mxCell id="sh4LW6aI4arqNzveAwOA-18" value="id" style="ellipse;whiteSpace=wrap;html=1;" parent="1" vertex="1">
          <mxGeometry x="500" y="180" width="80" height="40" as="geometry" />
        </mxCell>
        <mxCell id="sh4LW6aI4arqNzveAwOA-19" value="&lt;u&gt;nome&lt;/u&gt;" style="ellipse;whiteSpace=wrap;html=1;" parent="1" vertex="1">
          <mxGeometry x="510" y="280" width="80" height="40" as="geometry" />
        </mxCell>
        <mxCell id="sh4LW6aI4arqNzveAwOA-20" value="" style="endArrow=none;html=1;rounded=0;" parent="1" source="sh4LW6aI4arqNzveAwOA-19" target="sh4LW6aI4arqNzveAwOA-2" edge="1">
          <mxGeometry width="50" height="50" relative="1" as="geometry">
            <mxPoint x="486.1606209387828" y="178.29504257220697" as="sourcePoint" />
            <mxPoint x="523.3333333333333" y="220" as="targetPoint" />
          </mxGeometry>
        </mxCell>
        <mxCell id="sh4LW6aI4arqNzveAwOA-21" value="URL" style="ellipse;whiteSpace=wrap;html=1;" parent="1" vertex="1">
          <mxGeometry x="660" y="280" width="80" height="40" as="geometry" />
        </mxCell>
        <mxCell id="sh4LW6aI4arqNzveAwOA-22" value="" style="endArrow=none;html=1;rounded=0;" parent="1" source="sh4LW6aI4arqNzveAwOA-2" target="sh4LW6aI4arqNzveAwOA-21" edge="1">
          <mxGeometry width="50" height="50" relative="1" as="geometry">
            <mxPoint x="486.1606209387828" y="178.29504257220697" as="sourcePoint" />
            <mxPoint x="523.3333333333333" y="220" as="targetPoint" />
          </mxGeometry>
        </mxCell>
        <mxCell id="sh4LW6aI4arqNzveAwOA-23" value="comprar" style="rhombus;whiteSpace=wrap;html=1;" parent="1" vertex="1">
          <mxGeometry x="610" y="490" width="80" height="80" as="geometry" />
        </mxCell>
        <mxCell id="sh4LW6aI4arqNzveAwOA-24" value="" style="endArrow=none;html=1;rounded=0;entryX=0.5;entryY=1;entryDx=0;entryDy=0;" parent="1" source="sh4LW6aI4arqNzveAwOA-23" target="sh4LW6aI4arqNzveAwOA-2" edge="1">
          <mxGeometry width="50" height="50" relative="1" as="geometry">
            <mxPoint x="300" y="400" as="sourcePoint" />
            <mxPoint x="350" y="350" as="targetPoint" />
          </mxGeometry>
        </mxCell>
        <mxCell id="sh4LW6aI4arqNzveAwOA-32" value="N" style="edgeLabel;html=1;align=center;verticalAlign=middle;resizable=0;points=[];" parent="sh4LW6aI4arqNzveAwOA-24" vertex="1" connectable="0">
          <mxGeometry x="-0.3822" y="-4" relative="1" as="geometry">
            <mxPoint x="-14" y="63" as="offset" />
          </mxGeometry>
        </mxCell>
        <mxCell id="sh4LW6aI4arqNzveAwOA-25" value="" style="endArrow=none;html=1;rounded=0;exitX=1;exitY=0.5;exitDx=0;exitDy=0;entryX=0.5;entryY=1;entryDx=0;entryDy=0;fillOpacity=100;" parent="1" source="sh4LW6aI4arqNzveAwOA-1" target="sh4LW6aI4arqNzveAwOA-23" edge="1">
          <mxGeometry x="0.0931" y="-71" width="50" height="50" relative="1" as="geometry">
            <mxPoint x="560" y="410" as="sourcePoint" />
            <mxPoint x="540" y="530" as="targetPoint" />
            <mxPoint as="offset" />
          </mxGeometry>
        </mxCell>
        <mxCell id="sh4LW6aI4arqNzveAwOA-31" value="N" style="edgeLabel;html=1;align=center;verticalAlign=middle;resizable=0;points=[];" parent="sh4LW6aI4arqNzveAwOA-25" vertex="1" connectable="0">
          <mxGeometry x="-0.7197" relative="1" as="geometry">
            <mxPoint x="281" y="-10" as="offset" />
          </mxGeometry>
        </mxCell>
        <mxCell id="sh4LW6aI4arqNzveAwOA-26" value="preco" style="ellipse;whiteSpace=wrap;html=1;" parent="1" vertex="1">
          <mxGeometry x="560" y="460" width="60" height="30" as="geometry" />
        </mxCell>
        <mxCell id="sh4LW6aI4arqNzveAwOA-27" value="" style="endArrow=none;html=1;rounded=0;" parent="1" source="sh4LW6aI4arqNzveAwOA-26" target="sh4LW6aI4arqNzveAwOA-23" edge="1">
          <mxGeometry width="50" height="50" relative="1" as="geometry">
            <mxPoint x="246.58487846999014" y="635.0701578144856" as="sourcePoint" />
            <mxPoint x="235.18181818181802" y="570" as="targetPoint" />
          </mxGeometry>
        </mxCell>
        <mxCell id="sh4LW6aI4arqNzveAwOA-28" value="" style="endArrow=none;html=1;rounded=0;" parent="1" source="sh4LW6aI4arqNzveAwOA-23" target="sh4LW6aI4arqNzveAwOA-29" edge="1">
          <mxGeometry width="50" height="50" relative="1" as="geometry">
            <mxPoint x="497.4381112527683" y="471.5709672758154" as="sourcePoint" />
            <mxPoint x="570" y="580" as="targetPoint" />
          </mxGeometry>
        </mxCell>
        <mxCell id="sh4LW6aI4arqNzveAwOA-29" value="data" style="ellipse;whiteSpace=wrap;html=1;" parent="1" vertex="1">
          <mxGeometry x="680" y="460" width="60" height="30" as="geometry" />
        </mxCell>
        <mxCell id="sh4LW6aI4arqNzveAwOA-33" value="N" style="endArrow=none;html=1;rounded=0;entryX=1;entryY=0.5;entryDx=0;entryDy=0;shape=link;" parent="1" source="ru7PqEgB39XRiWJJ0tET-6" target="ru7PqEgB39XRiWJJ0tET-2" edge="1">
          <mxGeometry x="-0.7225" y="-10" width="50" height="50" relative="1" as="geometry">
            <mxPoint x="370" y="240" as="sourcePoint" />
            <mxPoint x="310" y="240" as="targetPoint" />
            <mxPoint as="offset" />
          </mxGeometry>
        </mxCell>
        <mxCell id="sh4LW6aI4arqNzveAwOA-35" value="1" style="endArrow=none;html=1;rounded=0;exitX=0;exitY=0.5;exitDx=0;exitDy=0;" parent="1" source="sh4LW6aI4arqNzveAwOA-2" target="ru7PqEgB39XRiWJJ0tET-6" edge="1">
          <mxGeometry x="0.8565" y="-10" width="50" height="50" relative="1" as="geometry">
            <mxPoint x="360" y="250" as="sourcePoint" />
            <mxPoint x="490" y="220" as="targetPoint" />
            <mxPoint as="offset" />
          </mxGeometry>
        </mxCell>
        <mxCell id="sh4LW6aI4arqNzveAwOA-36" value="jogar" style="rhombus;whiteSpace=wrap;html=1;" parent="1" vertex="1">
          <mxGeometry x="383" y="200" width="80" height="80" as="geometry" />
        </mxCell>
        <mxCell id="sh4LW6aI4arqNzveAwOA-38" value="&lt;u&gt;id&lt;/u&gt;" style="ellipse;whiteSpace=wrap;html=1;" parent="1" vertex="1">
          <mxGeometry x="180" y="140" width="80" height="40" as="geometry" />
        </mxCell>
        <mxCell id="sh4LW6aI4arqNzveAwOA-39" value="" style="endArrow=none;html=1;rounded=0;" parent="1" source="ru7PqEgB39XRiWJJ0tET-2" target="sh4LW6aI4arqNzveAwOA-38" edge="1">
          <mxGeometry width="50" height="50" relative="1" as="geometry">
            <mxPoint x="230" y="190" as="sourcePoint" />
            <mxPoint x="290" y="250" as="targetPoint" />
          </mxGeometry>
        </mxCell>
        <mxCell id="sh4LW6aI4arqNzveAwOA-42" value="dataInicio" style="ellipse;whiteSpace=wrap;html=1;" parent="1" vertex="1">
          <mxGeometry x="90" y="140" width="80" height="40" as="geometry" />
        </mxCell>
        <mxCell id="sh4LW6aI4arqNzveAwOA-43" value="" style="endArrow=none;html=1;rounded=0;" parent="1" source="sh4LW6aI4arqNzveAwOA-42" target="ru7PqEgB39XRiWJJ0tET-2" edge="1">
          <mxGeometry width="50" height="50" relative="1" as="geometry">
            <mxPoint x="230" y="220" as="sourcePoint" />
            <mxPoint x="200" y="190" as="targetPoint" />
          </mxGeometry>
        </mxCell>
        <mxCell id="sh4LW6aI4arqNzveAwOA-44" value="dataFim" style="ellipse;whiteSpace=wrap;html=1;" parent="1" vertex="1">
          <mxGeometry x="60" y="190" width="80" height="40" as="geometry" />
        </mxCell>
        <mxCell id="sh4LW6aI4arqNzveAwOA-45" value="" style="endArrow=none;html=1;rounded=0;" parent="1" source="sh4LW6aI4arqNzveAwOA-44" target="ru7PqEgB39XRiWJJ0tET-2" edge="1">
          <mxGeometry width="50" height="50" relative="1" as="geometry">
            <mxPoint x="151.07758675446712" y="186.99805383424768" as="sourcePoint" />
            <mxPoint x="140" y="250" as="targetPoint" />
          </mxGeometry>
        </mxCell>
        <mxCell id="sh4LW6aI4arqNzveAwOA-47" value="horaInicio" style="ellipse;whiteSpace=wrap;html=1;" parent="1" vertex="1">
          <mxGeometry x="270" y="150" width="80" height="40" as="geometry" />
        </mxCell>
        <mxCell id="sh4LW6aI4arqNzveAwOA-48" value="" style="endArrow=none;html=1;rounded=0;" parent="1" source="sh4LW6aI4arqNzveAwOA-47" target="ru7PqEgB39XRiWJJ0tET-2" edge="1">
          <mxGeometry width="50" height="50" relative="1" as="geometry">
            <mxPoint x="145.77708763999658" y="228.9442719099991" as="sourcePoint" />
            <mxPoint x="290" y="220" as="targetPoint" />
          </mxGeometry>
        </mxCell>
        <mxCell id="sh4LW6aI4arqNzveAwOA-50" value="horaFim" style="ellipse;whiteSpace=wrap;html=1;" parent="1" vertex="1">
          <mxGeometry x="270" y="280" width="80" height="40" as="geometry" />
        </mxCell>
        <mxCell id="sh4LW6aI4arqNzveAwOA-51" value="" style="endArrow=none;html=1;rounded=0;" parent="1" source="sh4LW6aI4arqNzveAwOA-50" target="ru7PqEgB39XRiWJJ0tET-2" edge="1">
          <mxGeometry width="50" height="50" relative="1" as="geometry">
            <mxPoint x="230" y="310" as="sourcePoint" />
            <mxPoint x="290" y="270" as="targetPoint" />
          </mxGeometry>
        </mxCell>
        <mxCell id="sh4LW6aI4arqNzveAwOA-52" value="pertencer" style="rhombus;whiteSpace=wrap;html=1;fontSize=11;" parent="1" vertex="1">
          <mxGeometry x="40" y="540" width="60" height="60" as="geometry" />
        </mxCell>
        <mxCell id="sh4LW6aI4arqNzveAwOA-53" value="N" style="endArrow=none;html=1;rounded=0;entryX=0;entryY=0.5;entryDx=0;entryDy=0;" parent="1" source="sh4LW6aI4arqNzveAwOA-52" target="sh4LW6aI4arqNzveAwOA-1" edge="1">
          <mxGeometry y="10" width="50" height="50" relative="1" as="geometry">
            <mxPoint x="110" y="560" as="sourcePoint" />
            <mxPoint x="160" y="510" as="targetPoint" />
            <mxPoint as="offset" />
          </mxGeometry>
        </mxCell>
        <mxCell id="sh4LW6aI4arqNzveAwOA-54" value="1" style="endArrow=none;html=1;rounded=0;exitX=0.5;exitY=1;exitDx=0;exitDy=0;fontSize=12;" parent="1" source="sh4LW6aI4arqNzveAwOA-14" target="sh4LW6aI4arqNzveAwOA-52" edge="1">
          <mxGeometry x="0.5773" y="10" width="50" height="50" relative="1" as="geometry">
            <mxPoint x="70" y="600" as="sourcePoint" />
            <mxPoint x="70" y="540" as="targetPoint" />
            <mxPoint as="offset" />
          </mxGeometry>
        </mxCell>
        <mxCell id="sh4LW6aI4arqNzveAwOA-55" value="D" style="ellipse;whiteSpace=wrap;html=1;aspect=fixed;" parent="1" vertex="1">
          <mxGeometry x="200" y="290" width="40" height="40" as="geometry" />
        </mxCell>
        <mxCell id="sh4LW6aI4arqNzveAwOA-56" value="" style="endArrow=none;html=1;rounded=0;" parent="1" source="sh4LW6aI4arqNzveAwOA-55" edge="1">
          <mxGeometry width="50" height="50" relative="1" as="geometry">
            <mxPoint x="240" y="390" as="sourcePoint" />
            <mxPoint x="220" y="270" as="targetPoint" />
          </mxGeometry>
        </mxCell>
        <mxCell id="sh4LW6aI4arqNzveAwOA-57" value="multi-jogador" style="rounded=0;whiteSpace=wrap;html=1;" parent="1" vertex="1">
          <mxGeometry x="110" y="350" width="90" height="40" as="geometry" />
        </mxCell>
        <mxCell id="sh4LW6aI4arqNzveAwOA-58" value="" style="endArrow=none;html=1;rounded=0;entryX=0;entryY=1;entryDx=0;entryDy=0;" parent="1" source="sh4LW6aI4arqNzveAwOA-57" target="sh4LW6aI4arqNzveAwOA-55" edge="1">
          <mxGeometry width="50" height="50" relative="1" as="geometry">
            <mxPoint x="222.76392063826188" y="300.1919020924572" as="sourcePoint" />
            <mxPoint x="220" y="310" as="targetPoint" />
          </mxGeometry>
        </mxCell>
        <mxCell id="sh4LW6aI4arqNzveAwOA-59" value="" style="endArrow=none;html=1;rounded=0;entryX=1;entryY=1;entryDx=0;entryDy=0;exitX=0.5;exitY=0;exitDx=0;exitDy=0;" parent="1" source="sh4LW6aI4arqNzveAwOA-60" target="sh4LW6aI4arqNzveAwOA-55" edge="1">
          <mxGeometry width="50" height="50" relative="1" as="geometry">
            <mxPoint x="250" y="340" as="sourcePoint" />
            <mxPoint x="205.85786437626894" y="334.1421356237312" as="targetPoint" />
          </mxGeometry>
        </mxCell>
        <mxCell id="sh4LW6aI4arqNzveAwOA-60" value="normal" style="rounded=0;whiteSpace=wrap;html=1;" parent="1" vertex="1">
          <mxGeometry x="226" y="350" width="90" height="40" as="geometry" />
        </mxCell>
        <mxCell id="sh4LW6aI4arqNzveAwOA-61" value="dificuldade" style="ellipse;whiteSpace=wrap;html=1;" parent="1" vertex="1">
          <mxGeometry x="331" y="330" width="70" height="50" as="geometry" />
        </mxCell>
        <mxCell id="sh4LW6aI4arqNzveAwOA-62" value="" style="endArrow=none;html=1;rounded=0;" parent="1" source="sh4LW6aI4arqNzveAwOA-61" target="sh4LW6aI4arqNzveAwOA-60" edge="1">
          <mxGeometry width="50" height="50" relative="1" as="geometry">
            <mxPoint x="230" y="460" as="sourcePoint" />
            <mxPoint x="280" y="410" as="targetPoint" />
          </mxGeometry>
        </mxCell>
        <mxCell id="sh4LW6aI4arqNzveAwOA-63" value="jogar" style="rhombus;whiteSpace=wrap;html=1;" parent="1" vertex="1">
          <mxGeometry x="125" y="420" width="60" height="50" as="geometry" />
        </mxCell>
        <mxCell id="sh4LW6aI4arqNzveAwOA-65" value="N" style="endArrow=none;html=1;rounded=0;entryX=0.5;entryY=0;entryDx=0;entryDy=0;" parent="1" source="sh4LW6aI4arqNzveAwOA-57" target="sh4LW6aI4arqNzveAwOA-63" edge="1">
          <mxGeometry x="0.3333" y="10" width="50" height="50" relative="1" as="geometry">
            <mxPoint x="110" y="480" as="sourcePoint" />
            <mxPoint x="160" y="430" as="targetPoint" />
            <mxPoint as="offset" />
          </mxGeometry>
        </mxCell>
        <mxCell id="sh4LW6aI4arqNzveAwOA-67" value="N" style="endArrow=none;html=1;rounded=0;" parent="1" source="sh4LW6aI4arqNzveAwOA-63" edge="1">
          <mxGeometry x="-0.6898" y="7" width="50" height="50" relative="1" as="geometry">
            <mxPoint x="153" y="469" as="sourcePoint" />
            <mxPoint x="155" y="540" as="targetPoint" />
            <mxPoint as="offset" />
          </mxGeometry>
        </mxCell>
        <mxCell id="sh4LW6aI4arqNzveAwOA-70" value="jogar" style="rhombus;whiteSpace=wrap;html=1;" parent="1" vertex="1">
          <mxGeometry x="242" y="420" width="60" height="50" as="geometry" />
        </mxCell>
        <mxCell id="sh4LW6aI4arqNzveAwOA-72" value="N" style="endArrow=none;html=1;rounded=0;entryX=0.5;entryY=0;entryDx=0;entryDy=0;exitX=0.5;exitY=1;exitDx=0;exitDy=0;" parent="1" source="sh4LW6aI4arqNzveAwOA-60" target="sh4LW6aI4arqNzveAwOA-70" edge="1">
          <mxGeometry x="0.3326" y="6" width="50" height="50" relative="1" as="geometry">
            <mxPoint x="170" y="400" as="sourcePoint" />
            <mxPoint x="220" y="350" as="targetPoint" />
            <mxPoint as="offset" />
          </mxGeometry>
        </mxCell>
        <mxCell id="sh4LW6aI4arqNzveAwOA-73" value="1" style="endArrow=none;html=1;rounded=0;exitX=0.5;exitY=1;exitDx=0;exitDy=0;entryX=0.879;entryY=-0.034;entryDx=0;entryDy=0;entryPerimeter=0;" parent="1" source="sh4LW6aI4arqNzveAwOA-70" target="sh4LW6aI4arqNzveAwOA-1" edge="1">
          <mxGeometry x="-0.7143" y="6" width="50" height="50" relative="1" as="geometry">
            <mxPoint x="274" y="400" as="sourcePoint" />
            <mxPoint x="264" y="540" as="targetPoint" />
            <mxPoint as="offset" />
          </mxGeometry>
        </mxCell>
        <mxCell id="sh4LW6aI4arqNzveAwOA-75" value="" style="endArrow=none;html=1;rounded=0;" parent="1" source="sh4LW6aI4arqNzveAwOA-77" target="sh4LW6aI4arqNzveAwOA-63" edge="1">
          <mxGeometry width="50" height="50" relative="1" as="geometry">
            <mxPoint x="70" y="430" as="sourcePoint" />
            <mxPoint x="70" y="400" as="targetPoint" />
          </mxGeometry>
        </mxCell>
        <mxCell id="sh4LW6aI4arqNzveAwOA-77" value="pontuaÃ§Ã£o" style="ellipse;whiteSpace=wrap;html=1;" parent="1" vertex="1">
          <mxGeometry x="187.5" y="397.5" width="65" height="30" as="geometry" />
        </mxCell>
        <mxCell id="sh4LW6aI4arqNzveAwOA-79" value="pontuaÃ§Ã£o" style="ellipse;whiteSpace=wrap;html=1;" parent="1" vertex="1">
          <mxGeometry x="315" y="397.5" width="60" height="35" as="geometry" />
        </mxCell>
        <mxCell id="sh4LW6aI4arqNzveAwOA-80" value="" style="endArrow=none;html=1;rounded=0;" parent="1" source="sh4LW6aI4arqNzveAwOA-79" target="sh4LW6aI4arqNzveAwOA-70" edge="1">
          <mxGeometry width="50" height="50" relative="1" as="geometry">
            <mxPoint x="89.04999021008985" y="444.6281540091385" as="sourcePoint" />
            <mxPoint x="134.39024390243912" y="451.3414634146342" as="targetPoint" />
          </mxGeometry>
        </mxCell>
        <mxCell id="sh4LW6aI4arqNzveAwOA-81" value="Estado" style="ellipse;whiteSpace=wrap;html=1;" parent="1" vertex="1">
          <mxGeometry x="105" y="300" width="70" height="30" as="geometry" />
        </mxCell>
        <mxCell id="sh4LW6aI4arqNzveAwOA-82" value="" style="endArrow=none;html=1;rounded=0;" parent="1" source="sh4LW6aI4arqNzveAwOA-57" target="sh4LW6aI4arqNzveAwOA-81" edge="1">
          <mxGeometry width="50" height="50" relative="1" as="geometry">
            <mxPoint x="270" y="370" as="sourcePoint" />
            <mxPoint x="270" y="330" as="targetPoint" />
          </mxGeometry>
        </mxCell>
        <mxCell id="sh4LW6aI4arqNzveAwOA-93" value="" style="endArrow=none;html=1;rounded=0;entryX=0.5;entryY=0;entryDx=0;entryDy=0;endSize=0;startSize=0;" parent="1" source="sh4LW6aI4arqNzveAwOA-57" target="4ngtMrXkkLxwLe9Ttvsz-7" edge="1">
          <mxGeometry width="50" height="50" relative="1" as="geometry">
            <mxPoint x="120" y="240" as="sourcePoint" />
            <mxPoint x="70" y="370" as="targetPoint" />
          </mxGeometry>
        </mxCell>
        <mxCell id="4ngtMrXkkLxwLe9Ttvsz-10" value="N" style="edgeLabel;html=1;align=center;verticalAlign=middle;resizable=0;points=[];" parent="sh4LW6aI4arqNzveAwOA-93" vertex="1" connectable="0">
          <mxGeometry x="0.3674" y="2" relative="1" as="geometry">
            <mxPoint y="-10" as="offset" />
          </mxGeometry>
        </mxCell>
        <mxCell id="sh4LW6aI4arqNzveAwOA-97" value="CrachÃ¡" style="rounded=0;whiteSpace=wrap;html=1;" parent="1" vertex="1">
          <mxGeometry x="605" y="10" width="90" height="40" as="geometry" />
        </mxCell>
        <mxCell id="sh4LW6aI4arqNzveAwOA-100" value="" style="endArrow=none;html=1;rounded=0;" parent="1" source="sh4LW6aI4arqNzveAwOA-102" target="4ngtMrXkkLxwLe9Ttvsz-1" edge="1">
          <mxGeometry width="50" height="50" relative="1" as="geometry">
            <mxPoint x="540" y="50" as="sourcePoint" />
            <mxPoint x="840" y="130" as="targetPoint" />
          </mxGeometry>
        </mxCell>
        <mxCell id="sh4LW6aI4arqNzveAwOA-102" value="&lt;u&gt;nome&lt;/u&gt;" style="ellipse;whiteSpace=wrap;html=1;" parent="1" vertex="1">
          <mxGeometry x="490" y="10" width="60" height="30" as="geometry" />
        </mxCell>
        <mxCell id="sh4LW6aI4arqNzveAwOA-105" value="tem" style="rhombus;whiteSpace=wrap;html=1;" parent="1" vertex="1">
          <mxGeometry x="620" y="100" width="60" height="50" as="geometry" />
        </mxCell>
        <mxCell id="sh4LW6aI4arqNzveAwOA-106" value="N" style="endArrow=none;html=1;rounded=0;shape=link;" parent="1" source="4ngtMrXkkLxwLe9Ttvsz-4" target="4ngtMrXkkLxwLe9Ttvsz-1" edge="1">
          <mxGeometry x="-0.5" y="-10" width="50" height="50" relative="1" as="geometry">
            <mxPoint x="360" y="260" as="sourcePoint" />
            <mxPoint x="410" y="210" as="targetPoint" />
            <mxPoint as="offset" />
          </mxGeometry>
        </mxCell>
        <mxCell id="sh4LW6aI4arqNzveAwOA-107" value="" style="endArrow=none;html=1;rounded=0;" parent="1" source="4ngtMrXkkLxwLe9Ttvsz-4" target="sh4LW6aI4arqNzveAwOA-2" edge="1">
          <mxGeometry width="50" height="50" relative="1" as="geometry">
            <mxPoint x="650" y="160" as="sourcePoint" />
            <mxPoint x="560" y="210" as="targetPoint" />
          </mxGeometry>
        </mxCell>
        <mxCell id="sh4LW6aI4arqNzveAwOA-108" value="1" style="edgeLabel;html=1;align=center;verticalAlign=middle;resizable=0;points=[];" parent="sh4LW6aI4arqNzveAwOA-107" vertex="1" connectable="0">
          <mxGeometry x="-0.1806" y="-2" relative="1" as="geometry">
            <mxPoint x="12" y="-11" as="offset" />
          </mxGeometry>
        </mxCell>
        <mxCell id="sh4LW6aI4arqNzveAwOA-109" value="" style="endArrow=none;html=1;rounded=0;" parent="1" source="sh4LW6aI4arqNzveAwOA-110" target="4ngtMrXkkLxwLe9Ttvsz-1" edge="1">
          <mxGeometry width="50" height="50" relative="1" as="geometry">
            <mxPoint x="470" y="60" as="sourcePoint" />
            <mxPoint x="520" y="120" as="targetPoint" />
          </mxGeometry>
        </mxCell>
        <mxCell id="sh4LW6aI4arqNzveAwOA-110" value="limiteDePontos" style="ellipse;whiteSpace=wrap;html=1;" parent="1" vertex="1">
          <mxGeometry x="460" y="60" width="90" height="40" as="geometry" />
        </mxCell>
        <mxCell id="sh4LW6aI4arqNzveAwOA-111" value="URL" style="ellipse;whiteSpace=wrap;html=1;" parent="1" vertex="1">
          <mxGeometry x="550" y="90" width="60" height="30" as="geometry" />
        </mxCell>
        <mxCell id="sh4LW6aI4arqNzveAwOA-112" value="" style="endArrow=none;html=1;rounded=0;" parent="1" source="sh4LW6aI4arqNzveAwOA-111" target="4ngtMrXkkLxwLe9Ttvsz-1" edge="1">
          <mxGeometry width="50" height="50" relative="1" as="geometry">
            <mxPoint x="509.7706433062574" y="67.98330435557398" as="sourcePoint" />
            <mxPoint x="525" y="67.14285714285714" as="targetPoint" />
          </mxGeometry>
        </mxCell>
        <mxCell id="sh4LW6aI4arqNzveAwOA-113" value="tem" style="rhombus;whiteSpace=wrap;html=1;" parent="1" vertex="1">
          <mxGeometry x="720" y="720" width="80" height="80" as="geometry" />
        </mxCell>
        <mxCell id="sh4LW6aI4arqNzveAwOA-115" value="" style="endArrow=none;html=1;rounded=0;entryX=1;entryY=0.5;entryDx=0;entryDy=0;" parent="1" target="4ngtMrXkkLxwLe9Ttvsz-1" edge="1">
          <mxGeometry width="50" height="50" relative="1" as="geometry">
            <mxPoint x="760" y="30" as="sourcePoint" />
            <mxPoint x="720" y="30" as="targetPoint" />
          </mxGeometry>
        </mxCell>
        <mxCell id="sh4LW6aI4arqNzveAwOA-116" value="" style="endArrow=none;html=1;rounded=0;exitX=0.5;exitY=0;exitDx=0;exitDy=0;" parent="1" source="sh4LW6aI4arqNzveAwOA-113" edge="1">
          <mxGeometry width="50" height="50" relative="1" as="geometry">
            <mxPoint x="680" y="650" as="sourcePoint" />
            <mxPoint x="760" y="30" as="targetPoint" />
          </mxGeometry>
        </mxCell>
        <mxCell id="sh4LW6aI4arqNzveAwOA-120" value="N" style="edgeLabel;html=1;align=center;verticalAlign=middle;resizable=0;points=[];" parent="sh4LW6aI4arqNzveAwOA-116" vertex="1" connectable="0">
          <mxGeometry x="-0.9254" y="2" relative="1" as="geometry">
            <mxPoint x="12" y="12" as="offset" />
          </mxGeometry>
        </mxCell>
        <mxCell id="sh4LW6aI4arqNzveAwOA-117" value="" style="endArrow=none;html=1;rounded=0;" parent="1" target="sh4LW6aI4arqNzveAwOA-1" edge="1">
          <mxGeometry width="50" height="50" relative="1" as="geometry">
            <mxPoint x="330" y="760" as="sourcePoint" />
            <mxPoint x="259.63" y="600" as="targetPoint" />
          </mxGeometry>
        </mxCell>
        <mxCell id="sh4LW6aI4arqNzveAwOA-118" value="" style="endArrow=none;html=1;rounded=0;" parent="1" target="sh4LW6aI4arqNzveAwOA-113" edge="1">
          <mxGeometry width="50" height="50" relative="1" as="geometry">
            <mxPoint x="330" y="760" as="sourcePoint" />
            <mxPoint x="220" y="570" as="targetPoint" />
          </mxGeometry>
        </mxCell>
        <mxCell id="sh4LW6aI4arqNzveAwOA-119" value="N" style="edgeLabel;html=1;align=center;verticalAlign=middle;resizable=0;points=[];" parent="sh4LW6aI4arqNzveAwOA-118" vertex="1" connectable="0">
          <mxGeometry x="0.8477" y="2" relative="1" as="geometry">
            <mxPoint x="20" y="-8" as="offset" />
          </mxGeometry>
        </mxCell>
        <mxCell id="GUx_8Err7lqsjJnCRb__-1" value="N" style="curved=1;endArrow=none;html=1;rounded=0;endFill=0;fontSize=10;entryX=0.5;entryY=0;entryDx=0;entryDy=0;" parent="1" target="GUx_8Err7lqsjJnCRb__-4" edge="1">
          <mxGeometry x="0.8333" y="4" width="50" height="50" relative="1" as="geometry">
            <mxPoint x="290" y="590" as="sourcePoint" />
            <mxPoint x="320" y="594" as="targetPoint" />
            <Array as="points">
              <mxPoint x="300" y="580" />
            </Array>
            <mxPoint as="offset" />
          </mxGeometry>
        </mxCell>
        <mxCell id="GUx_8Err7lqsjJnCRb__-4" value="adicionar" style="rhombus;whiteSpace=wrap;html=1;fontSize=11;" parent="1" vertex="1">
          <mxGeometry x="294" y="585" width="56" height="50" as="geometry" />
        </mxCell>
        <mxCell id="GUx_8Err7lqsjJnCRb__-5" value="N" style="curved=1;endArrow=none;html=1;rounded=0;endFill=0;entryX=0.5;entryY=1;entryDx=0;entryDy=0;fontSize=10;" parent="1" target="GUx_8Err7lqsjJnCRb__-4" edge="1">
          <mxGeometry x="0.9095" y="-9" width="50" height="50" relative="1" as="geometry">
            <mxPoint x="270" y="600" as="sourcePoint" />
            <mxPoint x="319.91420118343194" y="660" as="targetPoint" />
            <Array as="points">
              <mxPoint x="280" y="650" />
            </Array>
            <mxPoint as="offset" />
          </mxGeometry>
        </mxCell>
        <mxCell id="oKa5vw6iY9zJSlI11yUQ-1" value="N" style="endArrow=none;html=1;rounded=0;shape=link;width=3.333333333333334;" parent="1" source="oKa5vw6iY9zJSlI11yUQ-8" target="oKa5vw6iY9zJSlI11yUQ-17" edge="1">
          <mxGeometry x="-0.75" y="15" width="50" height="50" relative="1" as="geometry">
            <mxPoint x="170" y="670" as="sourcePoint" />
            <mxPoint x="80" y="750" as="targetPoint" />
            <mxPoint as="offset" />
          </mxGeometry>
        </mxCell>
        <mxCell id="oKa5vw6iY9zJSlI11yUQ-3" value="Conversa" style="whiteSpace=wrap;html=1;gradientColor=none;fillStyle=auto;" parent="1" vertex="1">
          <mxGeometry x="162.75" y="730" width="104.5" height="60" as="geometry" />
        </mxCell>
        <mxCell id="oKa5vw6iY9zJSlI11yUQ-4" value="&lt;span&gt;id&lt;/span&gt;" style="ellipse;whiteSpace=wrap;html=1;fontStyle=4" parent="1" vertex="1">
          <mxGeometry x="87.5" y="760" width="37.5" height="20" as="geometry" />
        </mxCell>
        <mxCell id="oKa5vw6iY9zJSlI11yUQ-5" value="" style="endArrow=none;html=1;rounded=0;" parent="1" source="oKa5vw6iY9zJSlI11yUQ-4" target="oKa5vw6iY9zJSlI11yUQ-3" edge="1">
          <mxGeometry width="50" height="50" relative="1" as="geometry">
            <mxPoint x="-8.276001098248457" y="747.5431251716013" as="sourcePoint" />
            <mxPoint x="129" y="780" as="targetPoint" />
          </mxGeometry>
        </mxCell>
        <mxCell id="oKa5vw6iY9zJSlI11yUQ-8" value="criar" style="rhombus;whiteSpace=wrap;html=1;fontSize=11;" parent="1" vertex="1">
          <mxGeometry x="185" y="650" width="60" height="55" as="geometry" />
        </mxCell>
        <mxCell id="oKa5vw6iY9zJSlI11yUQ-9" value="1" style="endArrow=none;html=1;rounded=0;exitX=0.5;exitY=0;exitDx=0;exitDy=0;" parent="1" source="oKa5vw6iY9zJSlI11yUQ-8" target="sh4LW6aI4arqNzveAwOA-1" edge="1">
          <mxGeometry x="-0.6818" y="-9" width="50" height="50" relative="1" as="geometry">
            <mxPoint x="269.13" y="770" as="sourcePoint" />
            <mxPoint x="269.63" y="610" as="targetPoint" />
            <mxPoint as="offset" />
          </mxGeometry>
        </mxCell>
        <mxCell id="oKa5vw6iY9zJSlI11yUQ-12" value="hora" style="ellipse;whiteSpace=wrap;html=1;fontStyle=0" parent="1" vertex="1">
          <mxGeometry x="291.5" y="942.5" width="55" height="20" as="geometry" />
        </mxCell>
        <mxCell id="oKa5vw6iY9zJSlI11yUQ-13" value="" style="endArrow=none;html=1;rounded=0;" parent="1" source="oKa5vw6iY9zJSlI11yUQ-12" target="x1HZbCk4ZVHeFLp-am_p-4" edge="1">
          <mxGeometry width="50" height="50" relative="1" as="geometry">
            <mxPoint x="-109.77600109824846" y="867.5431251716013" as="sourcePoint" />
            <mxPoint x="260" y="943.5294117647059" as="targetPoint" />
          </mxGeometry>
        </mxCell>
        <mxCell id="oKa5vw6iY9zJSlI11yUQ-14" value="data" style="ellipse;whiteSpace=wrap;html=1;fontStyle=0" parent="1" vertex="1">
          <mxGeometry x="205" y="980" width="55" height="20" as="geometry" />
        </mxCell>
        <mxCell id="oKa5vw6iY9zJSlI11yUQ-15" value="" style="endArrow=none;html=1;rounded=0;" parent="1" source="oKa5vw6iY9zJSlI11yUQ-14" target="x1HZbCk4ZVHeFLp-am_p-4" edge="1">
          <mxGeometry width="50" height="50" relative="1" as="geometry">
            <mxPoint x="-18.276001098248457" y="882.5431251716013" as="sourcePoint" />
            <mxPoint x="223.75" y="965" as="targetPoint" />
          </mxGeometry>
        </mxCell>
        <mxCell id="oKa5vw6iY9zJSlI11yUQ-17" value="" style="rounded=0;whiteSpace=wrap;html=1;fillColor=none;" parent="1" vertex="1">
          <mxGeometry x="171.5" y="737.5" width="86" height="45" as="geometry" />
        </mxCell>
        <mxCell id="oKa5vw6iY9zJSlI11yUQ-20" value="texto" style="ellipse;whiteSpace=wrap;html=1;fontStyle=0" parent="1" vertex="1">
          <mxGeometry x="125" y="980" width="55" height="20" as="geometry" />
        </mxCell>
        <mxCell id="oKa5vw6iY9zJSlI11yUQ-21" value="" style="endArrow=none;html=1;rounded=0;" parent="1" source="oKa5vw6iY9zJSlI11yUQ-20" target="x1HZbCk4ZVHeFLp-am_p-4" edge="1">
          <mxGeometry width="50" height="50" relative="1" as="geometry">
            <mxPoint x="46.72399890175154" y="877.5431251716013" as="sourcePoint" />
            <mxPoint x="183.75" y="965" as="targetPoint" />
          </mxGeometry>
        </mxCell>
        <mxCell id="3b_MXee6THDG98wMKyi0-3" value="" style="endArrow=none;html=1;rounded=0;" parent="1" source="oKa5vw6iY9zJSlI11yUQ-3" target="3b_MXee6THDG98wMKyi0-5" edge="1">
          <mxGeometry width="50" height="50" relative="1" as="geometry">
            <mxPoint x="140" y="790" as="sourcePoint" />
            <mxPoint x="90" y="810" as="targetPoint" />
          </mxGeometry>
        </mxCell>
        <mxCell id="3b_MXee6THDG98wMKyi0-5" value="nome" style="ellipse;whiteSpace=wrap;html=1;fontStyle=0" parent="1" vertex="1">
          <mxGeometry x="295" y="790" width="55" height="20" as="geometry" />
        </mxCell>
        <mxCell id="4ngtMrXkkLxwLe9Ttvsz-2" style="edgeStyle=orthogonalEdgeStyle;rounded=0;orthogonalLoop=1;jettySize=auto;html=1;exitX=0.5;exitY=1;exitDx=0;exitDy=0;" parent="1" source="4ngtMrXkkLxwLe9Ttvsz-1" target="4ngtMrXkkLxwLe9Ttvsz-1" edge="1">
          <mxGeometry relative="1" as="geometry" />
        </mxCell>
        <mxCell id="4ngtMrXkkLxwLe9Ttvsz-6" value="1" style="endArrow=none;html=1;rounded=0;fontSize=12;" parent="1" source="4ngtMrXkkLxwLe9Ttvsz-7" target="sh4LW6aI4arqNzveAwOA-14" edge="1">
          <mxGeometry x="-0.4118" y="10" width="50" height="50" relative="1" as="geometry">
            <mxPoint x="69" y="430" as="sourcePoint" />
            <mxPoint x="69.26" y="470" as="targetPoint" />
            <mxPoint as="offset" />
          </mxGeometry>
        </mxCell>
        <mxCell id="4ngtMrXkkLxwLe9Ttvsz-7" value="pertencer" style="rhombus;whiteSpace=wrap;html=1;fontSize=11;" parent="1" vertex="1">
          <mxGeometry x="40" y="367.5" width="60" height="60" as="geometry" />
        </mxCell>
        <mxCell id="jGqbS27dSiQ4FaT1gqT1-3" value="id" style="ellipse;whiteSpace=wrap;html=1;fontStyle=4" parent="1" vertex="1">
          <mxGeometry x="70" y="930" width="55" height="20" as="geometry" />
        </mxCell>
        <mxCell id="jGqbS27dSiQ4FaT1gqT1-4" value="" style="endArrow=none;html=1;rounded=0;" parent="1" source="jGqbS27dSiQ4FaT1gqT1-3" target="x1HZbCk4ZVHeFLp-am_p-4" edge="1">
          <mxGeometry width="50" height="50" relative="1" as="geometry">
            <mxPoint x="-22.276001098248457" y="997.5431251716013" as="sourcePoint" />
            <mxPoint x="170" y="940" as="targetPoint" />
          </mxGeometry>
        </mxCell>
        <mxCell id="jGqbS27dSiQ4FaT1gqT1-9" value="N" style="endArrow=none;html=1;rounded=0;shape=link;width=3.333333333333334;entryX=0.5;entryY=0;entryDx=0;entryDy=0;" parent="1" source="jGqbS27dSiQ4FaT1gqT1-10" target="x1HZbCk4ZVHeFLp-am_p-4" edge="1">
          <mxGeometry x="0.2" y="12" width="50" height="50" relative="1" as="geometry">
            <mxPoint x="200" y="880" as="sourcePoint" />
            <mxPoint x="214.8611111111112" y="915" as="targetPoint" />
            <mxPoint as="offset" />
          </mxGeometry>
        </mxCell>
        <mxCell id="jGqbS27dSiQ4FaT1gqT1-10" value="ter" style="rhombus;whiteSpace=wrap;html=1;fontSize=11;" parent="1" vertex="1">
          <mxGeometry x="184.5" y="820" width="60" height="60" as="geometry" />
        </mxCell>
        <mxCell id="jGqbS27dSiQ4FaT1gqT1-11" value="1" style="endArrow=none;html=1;rounded=0;" parent="1" source="jGqbS27dSiQ4FaT1gqT1-10" target="oKa5vw6iY9zJSlI11yUQ-3" edge="1">
          <mxGeometry x="-0.6818" y="-9" width="50" height="50" relative="1" as="geometry">
            <mxPoint x="199" y="810" as="sourcePoint" />
            <mxPoint x="199" y="790" as="targetPoint" />
            <mxPoint as="offset" />
          </mxGeometry>
        </mxCell>
        <mxCell id="jGqbS27dSiQ4FaT1gqT1-12" value="" style="rhombus;whiteSpace=wrap;html=1;fontSize=11;fillColor=none;" parent="1" vertex="1">
          <mxGeometry x="196" y="830" width="38" height="40" as="geometry" />
        </mxCell>
        <mxCell id="jGqbS27dSiQ4FaT1gqT1-13" value="" style="rhombus;whiteSpace=wrap;html=1;fontSize=11;fillColor=none;" parent="1" vertex="1">
          <mxGeometry x="194.5" y="657.5" width="41" height="40" as="geometry" />
        </mxCell>
        <mxCell id="x1HZbCk4ZVHeFLp-am_p-4" value="Mensagem" style="whiteSpace=wrap;html=1;gradientColor=none;fillStyle=auto;" parent="1" vertex="1">
          <mxGeometry x="162.75" y="910" width="104.5" height="60" as="geometry" />
        </mxCell>
        <mxCell id="x1HZbCk4ZVHeFLp-am_p-5" value="" style="rounded=0;whiteSpace=wrap;html=1;fillColor=none;" parent="1" vertex="1">
          <mxGeometry x="172" y="917.5" width="86" height="45" as="geometry" />
        </mxCell>
        <mxCell id="DwXgrcymfcmezO_gUisE-1" value="Jogador" style="rounded=0;whiteSpace=wrap;html=1;" parent="1" vertex="1">
          <mxGeometry x="296" y="1075" width="149" height="60" as="geometry" />
        </mxCell>
        <mxCell id="DwXgrcymfcmezO_gUisE-2" value="id" style="ellipse;whiteSpace=wrap;html=1;" parent="1" vertex="1">
          <mxGeometry x="413" y="1035" width="50" height="30" as="geometry" />
        </mxCell>
        <mxCell id="DwXgrcymfcmezO_gUisE-3" value="" style="endArrow=none;html=1;rounded=0;" parent="1" source="DwXgrcymfcmezO_gUisE-2" target="DwXgrcymfcmezO_gUisE-1" edge="1">
          <mxGeometry width="50" height="50" relative="1" as="geometry">
            <mxPoint x="407" y="1005" as="sourcePoint" />
            <mxPoint x="517" y="1075" as="targetPoint" />
          </mxGeometry>
        </mxCell>
        <mxCell id="DwXgrcymfcmezO_gUisE-4" value="&lt;u&gt;email&lt;/u&gt;" style="ellipse;whiteSpace=wrap;html=1;" parent="1" vertex="1">
          <mxGeometry x="351" y="1035" width="50" height="25" as="geometry" />
        </mxCell>
        <mxCell id="DwXgrcymfcmezO_gUisE-5" value="" style="endArrow=none;html=1;rounded=0;" parent="1" source="DwXgrcymfcmezO_gUisE-4" target="DwXgrcymfcmezO_gUisE-1" edge="1">
          <mxGeometry width="50" height="50" relative="1" as="geometry">
            <mxPoint x="351.5217202360759" y="1130.6295742866835" as="sourcePoint" />
            <mxPoint x="407" y="1103.888888888889" as="targetPoint" />
          </mxGeometry>
        </mxCell>
        <mxCell id="DwXgrcymfcmezO_gUisE-6" value="&lt;u&gt;username&lt;/u&gt;" style="ellipse;whiteSpace=wrap;html=1;" parent="1" vertex="1">
          <mxGeometry x="240" y="1032.5" width="70" height="30" as="geometry" />
        </mxCell>
        <mxCell id="DwXgrcymfcmezO_gUisE-7" value="" style="endArrow=none;html=1;rounded=0;" parent="1" source="DwXgrcymfcmezO_gUisE-6" target="DwXgrcymfcmezO_gUisE-1" edge="1">
          <mxGeometry width="50" height="50" relative="1" as="geometry">
            <mxPoint x="294.72399890175154" y="1102.5431251716013" as="sourcePoint" />
            <mxPoint x="407" y="1084.5454545454545" as="targetPoint" />
          </mxGeometry>
        </mxCell>
        <mxCell id="DwXgrcymfcmezO_gUisE-8" value="Estado" style="ellipse;whiteSpace=wrap;html=1;" parent="1" vertex="1">
          <mxGeometry x="490" y="1035" width="81" height="40" as="geometry" />
        </mxCell>
        <mxCell id="DwXgrcymfcmezO_gUisE-9" value="" style="endArrow=none;html=1;rounded=0;" parent="1" source="DwXgrcymfcmezO_gUisE-8" target="DwXgrcymfcmezO_gUisE-1" edge="1">
          <mxGeometry width="50" height="50" relative="1" as="geometry">
            <mxPoint x="296.96488078545906" y="1070.9368415147273" as="sourcePoint" />
            <mxPoint x="407" y="1073.6363636363635" as="targetPoint" />
          </mxGeometry>
        </mxCell>
        <mxCell id="DwXgrcymfcmezO_gUisE-13" value="EstatÃ­stica" style="rounded=0;whiteSpace=wrap;html=1;" parent="1" vertex="1">
          <mxGeometry x="37.5" y="1075" width="120" height="60" as="geometry" />
        </mxCell>
        <mxCell id="DwXgrcymfcmezO_gUisE-19" value="nrPartidas" style="ellipse;whiteSpace=wrap;html=1;dashed=1;" parent="1" vertex="1">
          <mxGeometry y="1030" width="70" height="30" as="geometry" />
        </mxCell>
        <mxCell id="DwXgrcymfcmezO_gUisE-20" value="" style="endArrow=none;html=1;rounded=0;" parent="1" source="DwXgrcymfcmezO_gUisE-13" target="DwXgrcymfcmezO_gUisE-19" edge="1">
          <mxGeometry width="50" height="50" relative="1" as="geometry">
            <mxPoint x="150" y="1120" as="sourcePoint" />
            <mxPoint x="200" y="1070" as="targetPoint" />
          </mxGeometry>
        </mxCell>
        <mxCell id="DwXgrcymfcmezO_gUisE-21" value="nrJogos" style="ellipse;whiteSpace=wrap;html=1;dashed=1;" parent="1" vertex="1">
          <mxGeometry x="71.25" y="1020" width="70" height="30" as="geometry" />
        </mxCell>
        <mxCell id="DwXgrcymfcmezO_gUisE-22" value="" style="endArrow=none;html=1;rounded=0;" parent="1" source="DwXgrcymfcmezO_gUisE-13" target="DwXgrcymfcmezO_gUisE-21" edge="1">
          <mxGeometry width="50" height="50" relative="1" as="geometry">
            <mxPoint x="81" y="1085" as="sourcePoint" />
            <mxPoint x="67" y="1069" as="targetPoint" />
          </mxGeometry>
        </mxCell>
        <mxCell id="DwXgrcymfcmezO_gUisE-23" value="totalPontos" style="ellipse;whiteSpace=wrap;html=1;dashed=1;" parent="1" vertex="1">
          <mxGeometry x="156" y="1030" width="70" height="30" as="geometry" />
        </mxCell>
        <mxCell id="DwXgrcymfcmezO_gUisE-24" value="" style="endArrow=none;html=1;rounded=0;" parent="1" source="DwXgrcymfcmezO_gUisE-13" target="DwXgrcymfcmezO_gUisE-23" edge="1">
          <mxGeometry width="50" height="50" relative="1" as="geometry">
            <mxPoint x="111" y="1085" as="sourcePoint" />
            <mxPoint x="114" y="1060" as="targetPoint" />
          </mxGeometry>
        </mxCell>
        <mxCell id="DwXgrcymfcmezO_gUisE-26" value="" style="rounded=0;whiteSpace=wrap;html=1;fillColor=none;" parent="1" vertex="1">
          <mxGeometry x="47.5" y="1082.5" width="100" height="45" as="geometry" />
        </mxCell>
        <mxCell id="DwXgrcymfcmezO_gUisE-27" value="Jogo" style="rounded=0;whiteSpace=wrap;html=1;" parent="1" vertex="1">
          <mxGeometry x="661" y="860" width="120" height="60" as="geometry" />
        </mxCell>
        <mxCell id="DwXgrcymfcmezO_gUisE-28" value="" style="endArrow=none;html=1;rounded=0;" parent="1" source="DwXgrcymfcmezO_gUisE-29" target="DwXgrcymfcmezO_gUisE-27" edge="1">
          <mxGeometry width="50" height="50" relative="1" as="geometry">
            <mxPoint x="531" y="800" as="sourcePoint" />
            <mxPoint x="411" y="950" as="targetPoint" />
          </mxGeometry>
        </mxCell>
        <mxCell id="DwXgrcymfcmezO_gUisE-29" value="id" style="ellipse;whiteSpace=wrap;html=1;" parent="1" vertex="1">
          <mxGeometry x="651" y="810" width="80" height="40" as="geometry" />
        </mxCell>
        <mxCell id="DwXgrcymfcmezO_gUisE-30" value="&lt;u&gt;nome&lt;/u&gt;" style="ellipse;whiteSpace=wrap;html=1;" parent="1" vertex="1">
          <mxGeometry x="651" y="940" width="80" height="40" as="geometry" />
        </mxCell>
        <mxCell id="DwXgrcymfcmezO_gUisE-31" value="" style="endArrow=none;html=1;rounded=0;" parent="1" source="DwXgrcymfcmezO_gUisE-30" target="DwXgrcymfcmezO_gUisE-27" edge="1">
          <mxGeometry width="50" height="50" relative="1" as="geometry">
            <mxPoint x="557.1606209387828" y="828.295042572207" as="sourcePoint" />
            <mxPoint x="594.3333333333333" y="870" as="targetPoint" />
          </mxGeometry>
        </mxCell>
        <mxCell id="DwXgrcymfcmezO_gUisE-32" value="URL" style="ellipse;whiteSpace=wrap;html=1;" parent="1" vertex="1">
          <mxGeometry x="740" y="940" width="80" height="40" as="geometry" />
        </mxCell>
        <mxCell id="DwXgrcymfcmezO_gUisE-33" value="" style="endArrow=none;html=1;rounded=0;" parent="1" source="DwXgrcymfcmezO_gUisE-27" target="DwXgrcymfcmezO_gUisE-32" edge="1">
          <mxGeometry width="50" height="50" relative="1" as="geometry">
            <mxPoint x="557.1606209387828" y="828.295042572207" as="sourcePoint" />
            <mxPoint x="594.3333333333333" y="870" as="targetPoint" />
          </mxGeometry>
        </mxCell>
        <mxCell id="DwXgrcymfcmezO_gUisE-36" value="EstatÃ­stica" style="rounded=0;whiteSpace=wrap;html=1;" parent="1" vertex="1">
          <mxGeometry x="408.5" y="860" width="120" height="60" as="geometry" />
        </mxCell>
        <mxCell id="DwXgrcymfcmezO_gUisE-39" value="nrPartidas" style="ellipse;whiteSpace=wrap;html=1;dashed=1;" parent="1" vertex="1">
          <mxGeometry x="368" y="815" width="70" height="30" as="geometry" />
        </mxCell>
        <mxCell id="DwXgrcymfcmezO_gUisE-40" value="" style="endArrow=none;html=1;rounded=0;" parent="1" source="DwXgrcymfcmezO_gUisE-36" target="DwXgrcymfcmezO_gUisE-39" edge="1">
          <mxGeometry width="50" height="50" relative="1" as="geometry">
            <mxPoint x="521" y="905" as="sourcePoint" />
            <mxPoint x="420.23455602995614" y="843.7034158795848" as="targetPoint" />
          </mxGeometry>
        </mxCell>
        <mxCell id="DwXgrcymfcmezO_gUisE-41" value="nrJogadores" style="ellipse;whiteSpace=wrap;html=1;dashed=1;" parent="1" vertex="1">
          <mxGeometry x="439.25" y="805" width="70" height="30" as="geometry" />
        </mxCell>
        <mxCell id="DwXgrcymfcmezO_gUisE-42" value="" style="endArrow=none;html=1;rounded=0;" parent="1" source="DwXgrcymfcmezO_gUisE-36" edge="1">
          <mxGeometry width="50" height="50" relative="1" as="geometry">
            <mxPoint x="452" y="870" as="sourcePoint" />
            <mxPoint x="475.45237569658696" y="834.9802025284414" as="targetPoint" />
          </mxGeometry>
        </mxCell>
        <mxCell id="DwXgrcymfcmezO_gUisE-43" value="totalPontos" style="ellipse;whiteSpace=wrap;html=1;dashed=1;" parent="1" vertex="1">
          <mxGeometry x="524" y="815" width="70" height="30" as="geometry" />
        </mxCell>
        <mxCell id="DwXgrcymfcmezO_gUisE-44" value="" style="endArrow=none;html=1;rounded=0;" parent="1" source="DwXgrcymfcmezO_gUisE-36" edge="1">
          <mxGeometry width="50" height="50" relative="1" as="geometry">
            <mxPoint x="482" y="870" as="sourcePoint" />
            <mxPoint x="542.5631833135352" y="842.4743748883282" as="targetPoint" />
          </mxGeometry>
        </mxCell>
        <mxCell id="DwXgrcymfcmezO_gUisE-45" value="" style="rounded=0;whiteSpace=wrap;html=1;fillColor=none;" parent="1" vertex="1">
          <mxGeometry x="418.5" y="867.5" width="100" height="45" as="geometry" />
        </mxCell>
        <mxCell id="DwXgrcymfcmezO_gUisE-48" value="RI2" style="text;html=1;strokeColor=none;fillColor=none;align=center;verticalAlign=middle;whiteSpace=wrap;rounded=0;" parent="1" vertex="1">
          <mxGeometry x="184.5" y="470" width="60" height="30" as="geometry" />
        </mxCell>
        <mxCell id="DwXgrcymfcmezO_gUisE-49" value="RI1" style="text;html=1;strokeColor=none;fillColor=none;align=center;verticalAlign=middle;whiteSpace=wrap;rounded=0;" parent="1" vertex="1">
          <mxGeometry x="306.5" y="460" width="60" height="30" as="geometry" />
        </mxCell>
        <mxCell id="DwXgrcymfcmezO_gUisE-51" value="RI2" style="text;html=1;strokeColor=none;fillColor=none;align=center;verticalAlign=middle;whiteSpace=wrap;rounded=0;" parent="1" vertex="1">
          <mxGeometry x="112.5" y="605" width="60" height="30" as="geometry" />
        </mxCell>
        <mxCell id="DwXgrcymfcmezO_gUisE-52" value="RI1: gerado pelo sistema." style="text;html=1;strokeColor=none;fillColor=none;align=left;verticalAlign=middle;whiteSpace=wrap;rounded=0;" parent="1" vertex="1">
          <mxGeometry x="1.5" y="-70" width="140" height="30" as="geometry" />
        </mxCell>
        <mxCell id="DwXgrcymfcmezO_gUisE-53" value="RI2: Valores Ãºnicos e obrigatÃ³rios." style="text;html=1;strokeColor=none;fillColor=none;align=left;verticalAlign=middle;whiteSpace=wrap;rounded=0;" parent="1" vertex="1">
          <mxGeometry x="1.5" y="-40" width="190" height="30" as="geometry" />
        </mxCell>
        <mxCell id="DwXgrcymfcmezO_gUisE-56" value="RI3: Valores possÃ­veis sÃ£o &#39;Ativo&#39;, &#39;Inativo&#39;, &#39;Banido&#39;." style="text;html=1;strokeColor=none;fillColor=none;align=left;verticalAlign=middle;whiteSpace=wrap;rounded=0;" parent="1" vertex="1">
          <mxGeometry x="1.5" y="-10" width="280" height="30" as="geometry" />
        </mxCell>
        <mxCell id="DwXgrcymfcmezO_gUisE-57" value="RI3" style="text;html=1;strokeColor=none;fillColor=none;align=center;verticalAlign=middle;whiteSpace=wrap;rounded=0;" parent="1" vertex="1">
          <mxGeometry x="354" y="490" width="60" height="30" as="geometry" />
        </mxCell>
        <mxCell id="DwXgrcymfcmezO_gUisE-58" value="RI4:&amp;nbsp;referÃªncia alfanumÃ©rica de dimensÃ£o 10." style="text;html=1;strokeColor=none;fillColor=none;align=left;verticalAlign=middle;whiteSpace=wrap;rounded=0;" parent="1" vertex="1">
          <mxGeometry x="1.5" y="20" width="250" height="30" as="geometry" />
        </mxCell>
        <mxCell id="DwXgrcymfcmezO_gUisE-59" value="RI4" style="text;html=1;strokeColor=none;fillColor=none;align=center;verticalAlign=middle;whiteSpace=wrap;rounded=0;" parent="1" vertex="1">
          <mxGeometry x="511" y="160" width="60" height="30" as="geometry" />
        </mxCell>
        <mxCell id="DwXgrcymfcmezO_gUisE-60" value="RI2" style="text;html=1;strokeColor=none;fillColor=none;align=center;verticalAlign=middle;whiteSpace=wrap;rounded=0;" parent="1" vertex="1">
          <mxGeometry x="520" y="320" width="60" height="30" as="geometry" />
        </mxCell>
        <mxCell id="DwXgrcymfcmezO_gUisE-61" value="RI5: valor de 1 a 5." style="text;html=1;strokeColor=none;fillColor=none;align=left;verticalAlign=middle;whiteSpace=wrap;rounded=0;" parent="1" vertex="1">
          <mxGeometry y="50" width="120" height="30" as="geometry" />
        </mxCell>
        <mxCell id="DwXgrcymfcmezO_gUisE-62" value="RI5" style="text;html=1;strokeColor=none;fillColor=none;align=center;verticalAlign=middle;whiteSpace=wrap;rounded=0;" parent="1" vertex="1">
          <mxGeometry x="383" y="337.5" width="60" height="30" as="geometry" />
        </mxCell>
        <mxCell id="DwXgrcymfcmezO_gUisE-63" value="RI6: Valores possÃ­veis sÃ£o &#39;Por iniciar&#39;, &#39;A aguardar jogadores&#39;, &#39;Em curso&#39;, &#39;Terminada&#39;." style="text;html=1;strokeColor=none;fillColor=none;align=left;verticalAlign=middle;whiteSpace=wrap;rounded=0;" parent="1" vertex="1">
          <mxGeometry x="281.5" y="-70" width="170" height="50" as="geometry" />
        </mxCell>
        <mxCell id="DwXgrcymfcmezO_gUisE-64" value="RI6" style="text;html=1;strokeColor=none;fillColor=none;align=center;verticalAlign=middle;whiteSpace=wrap;rounded=0;" parent="1" vertex="1">
          <mxGeometry x="110" y="280" width="60" height="30" as="geometry" />
        </mxCell>
        <mxCell id="DwXgrcymfcmezO_gUisE-65" value="RI7: Apenas jogadores da mesma regiÃ£o podem jogar essa partida." style="text;html=1;strokeColor=none;fillColor=none;align=left;verticalAlign=middle;whiteSpace=wrap;rounded=0;" parent="1" vertex="1">
          <mxGeometry x="281.5" y="-20" width="150" height="50" as="geometry" />
        </mxCell>
        <mxCell id="DwXgrcymfcmezO_gUisE-66" value="RI7" style="text;html=1;strokeColor=none;fillColor=none;align=center;verticalAlign=middle;whiteSpace=wrap;rounded=0;" parent="1" vertex="1">
          <mxGeometry x="102.75" y="413" width="60" height="30" as="geometry" />
        </mxCell>
        <mxCell id="DwXgrcymfcmezO_gUisE-67" value="RI8: NÃºmero sequencial e Ãºnico." style="text;html=1;strokeColor=none;fillColor=none;align=center;verticalAlign=middle;whiteSpace=wrap;rounded=0;" parent="1" vertex="1">
          <mxGeometry x="281" y="30" width="179" height="30" as="geometry" />
        </mxCell>
        <mxCell id="DwXgrcymfcmezO_gUisE-68" value="RI8" style="text;html=1;strokeColor=none;fillColor=none;align=center;verticalAlign=middle;whiteSpace=wrap;rounded=0;" parent="1" vertex="1">
          <mxGeometry x="190" y="120" width="60" height="30" as="geometry" />
        </mxCell>
        <mxCell id="2hK_Zh-4m7zFd5lRjLcW-1" value="" style="endArrow=none;html=1;rounded=0;exitX=1;exitY=0.5;exitDx=0;exitDy=0;entryX=0;entryY=0.5;entryDx=0;entryDy=0;" edge="1" parent="1" source="DwXgrcymfcmezO_gUisE-13" target="DwXgrcymfcmezO_gUisE-1">
          <mxGeometry width="50" height="50" relative="1" as="geometry">
            <mxPoint x="200" y="1120" as="sourcePoint" />
            <mxPoint x="250" y="1070" as="targetPoint" />
          </mxGeometry>
        </mxCell>
        <mxCell id="2hK_Zh-4m7zFd5lRjLcW-2" value="" style="verticalLabelPosition=bottom;verticalAlign=top;html=1;shape=mxgraph.basic.arc;startAngle=0.5394008173563078;endAngle=0.9580289579934987;" vertex="1" parent="1">
          <mxGeometry x="223.25" y="1082.5" width="44" height="45" as="geometry" />
        </mxCell>
        <mxCell id="2hK_Zh-4m7zFd5lRjLcW-4" value="" style="endArrow=none;html=1;rounded=0;exitX=1;exitY=0.5;exitDx=0;exitDy=0;entryX=0;entryY=0.5;entryDx=0;entryDy=0;" edge="1" parent="1" source="DwXgrcymfcmezO_gUisE-36" target="DwXgrcymfcmezO_gUisE-27">
          <mxGeometry width="50" height="50" relative="1" as="geometry">
            <mxPoint x="490" y="889.47" as="sourcePoint" />
            <mxPoint x="628" y="889.47" as="targetPoint" />
          </mxGeometry>
        </mxCell>
        <mxCell id="2hK_Zh-4m7zFd5lRjLcW-5" value="" style="verticalLabelPosition=bottom;verticalAlign=top;html=1;shape=mxgraph.basic.arc;startAngle=0.5394008173563078;endAngle=0.9580289579934987;" vertex="1" parent="1">
          <mxGeometry x="590" y="867.5" width="44" height="45" as="geometry" />
        </mxCell>
      </root>
    </mxGraphModel>
  </diagram>
</mxfile>
